<svg xmlns="http://www.w3.org/2000/svg" x="0px" y="0px" width="12" height="12" viewBox="0 0 172 172" style=" fill:#000000;">
  <g transform="">
    <g fill="none" fill-rule="nonzero" stroke="none" stroke-width="1" stroke-linecap="butt" stroke-linejoin="miter" stroke-miterlimit="10" stroke-dasharray="" stroke-dashoffset="0" font-family="none" font-weight="none" font-size="none" text-anchor="none" style="mix-blend-mode: normal">
      <path d="M0,172v-172h172v172z" fill="#0077c5"></path>
      <g fill="#ffffff">
        <g id="surface1">
          <path d="M86,10.32c-22.83031,0 -41.28,18.44969 -41.28,41.28v17.2h-13.76c-5.84531,0 -10.32,4.47469 -10.32,10.32v82.56c0,5.84531 4.47469,10.32 10.32,10.32h110.08c5.84531,0 10.32,-4.47469 10.32,-10.32v-82.56c0,-5.84531 -4.47469,-10.32 -10.32,-10.32h-13.76v-17.2c0,-22.83031 -18.44969,-41.28 -41.28,-41.28zM86,17.2c19.14844,0 34.4,15.25156 34.4,34.4v17.2h-68.8v-17.2c0,-19.14844 15.25156,-34.4 34.4,-34.4zM86,103.2c5.84531,0 10.32,4.47469 10.32,10.32c0,3.09063 -1.37062,5.805 -3.44,7.525v9.675c0,3.78938 -3.09062,6.88 -6.88,6.88c-3.78937,0 -6.88,-3.09062 -6.88,-6.88v-9.675c-2.06937,-1.72 -3.44,-4.43437 -3.44,-7.525c0,-5.84531 4.47469,-10.32 10.32,-10.32z"></path>
        </g>
      </g>
    </g>
  </g>
</svg>